<?xml version="1.0" standalone="no"?>
<!DOCTYPE svg PUBLIC "-//W3C//DTD SVG 20010904//EN"
 "http://www.w3.org/TR/2001/REC-SVG-20010904/DTD/svg10.dtd">
<svg version="1.0" xmlns="http://www.w3.org/2000/svg"
 width="500.000000pt" height="500.000000pt" viewBox="0 0 500.000000 500.000000"
 preserveAspectRatio="xMidYMid meet">

<g transform="translate(0.000000,500.000000) scale(0.100000,-0.100000)"
fill="#000000" stroke="none">
<path d="M3676 3465 c-3 -9 -6 -25 -6 -36 0 -23 -9 -24 -38 -3 -13 9 -26 13
-29 10 -8 -8 27 -96 38 -96 5 0 3 16 -5 35 -13 31 -6 50 9 25 11 -18 34 -10
37 13 4 21 5 21 18 -5 21 -44 32 -32 13 15 -20 53 -29 63 -37 42z"/>
<path d="M3868 3473 c-13 -3 -18 -15 -18 -44 0 -24 4 -38 10 -34 6 3 10 19 10
36 0 19 5 29 15 29 8 0 15 5 15 10 0 10 -3 11 -32 3z"/>
<path d="M3750 3455 c-7 -9 -10 -25 -6 -40 6 -22 11 -26 39 -23 27 3 33 8 35
32 5 43 -41 64 -68 31z m50 -10 c15 -18 6 -45 -15 -45 -18 0 -30 24 -21 45 7
19 20 19 36 0z"/>
<path d="M3932 3448 c-28 -28 -5 -69 38 -67 l25 1 -24 7 c-14 4 -27 13 -29 20
-3 10 3 11 27 6 32 -7 37 -1 25 29 -7 19 -45 21 -62 4z m48 -8 c0 -5 -9 -10
-21 -10 -11 0 -17 5 -14 10 3 6 13 10 21 10 8 0 14 -4 14 -10z"/>
<path d="M2057 3426 c-53 -8 -83 -18 -96 -31 -13 -15 -25 -67 -46 -193 -37
-232 -29 -306 38 -356 24 -18 43 -21 115 -21 74 0 94 4 132 25 55 31 75 66 56
95 -12 16 -23 19 -63 16 -26 -2 -75 -4 -108 -5 l-60 -1 -3 56 -3 57 88 6 c107
8 141 21 149 53 13 50 -44 67 -169 50 l-58 -9 3 69 3 68 101 5 c64 3 107 10
118 19 23 19 20 66 -6 91 -25 23 -69 25 -191 6z"/>
<path d="M1060 3418 c-19 -5 -39 -13 -44 -18 -5 -5 -9 -125 -9 -267 -1 -277 3
-303 47 -303 38 0 49 25 54 114 l4 83 83 5 c78 5 122 18 137 42 14 20 8 53
-12 71 -16 15 -33 17 -114 13 l-95 -4 -3 77 -3 77 86 4 c103 6 129 18 129 58
0 47 -30 60 -135 59 -49 0 -106 -5 -125 -11z"/>
<path d="M4092 3423 c-6 -2 -10 -8 -7 -13 3 -5 0 -20 -7 -35 -9 -20 -9 -28 2
-38 10 -10 12 -9 8 3 -7 20 9 50 26 50 9 0 12 7 9 20 -5 21 -9 22 -31 13z"/>
<path d="M1560 3411 c-14 -5 -46 -9 -71 -10 -26 -1 -52 -7 -58 -15 -20 -23
-43 -216 -44 -365 -1 -139 -1 -144 22 -162 29 -23 33 -23 60 -1 17 13 23 33
28 85 3 37 9 67 12 67 4 0 56 -29 116 -65 61 -36 120 -68 132 -71 34 -9 71 3
84 27 20 38 3 65 -76 114 -41 25 -75 48 -75 50 0 1 23 18 51 36 66 42 89 80
89 144 0 102 -64 162 -182 170 -35 2 -74 0 -88 -4z m138 -114 c17 -14 15 -41
-6 -60 -24 -22 -98 -54 -144 -62 l-38 -7 0 40 c0 48 29 88 73 101 35 10 95 4
115 -12z"/>
<path d="M2419 3393 c-66 -34 -99 -80 -99 -137 0 -76 51 -130 173 -185 37 -17
70 -38 74 -47 13 -34 -28 -39 -138 -19 -30 6 -41 3 -58 -14 -31 -31 -26 -66
13 -109 l35 -37 88 1 c138 0 199 43 197 138 -1 53 -35 118 -76 149 -18 13 -63
38 -100 56 -37 19 -75 42 -84 52 -16 18 -16 20 0 38 9 10 37 24 62 31 38 11
54 10 102 -3 31 -8 60 -13 64 -11 15 9 8 41 -14 69 -48 61 -149 73 -239 28z"/>
<path d="M3151 3401 c-6 -10 -13 -62 -17 -115 l-7 -96 -132 0 -132 0 -7 38
c-3 20 -6 54 -6 74 0 57 -16 88 -44 88 -55 0 -64 -63 -46 -346 12 -202 20
-234 56 -234 33 0 44 42 44 162 l0 118 134 0 133 0 6 -114 c6 -119 14 -148 48
-166 16 -9 26 -8 45 5 22 14 24 21 24 103 0 125 -21 453 -31 480 -11 28 -54
30 -68 3z"/>
<path d="M4141 3358 c-17 -23 -28 -44 -25 -47 3 -3 13 5 23 18 13 16 24 22 36
17 16 -6 16 -8 0 -32 -22 -35 -12 -42 13 -9 22 28 20 55 -4 55 -12 0 -12 4 -4
20 19 36 -7 21 -39 -22z"/>
<path d="M3733 3325 c-85 -24 -143 -56 -198 -110 -97 -94 -147 -240 -125 -364
6 -35 10 -64 8 -66 -2 -1 -25 -9 -52 -18 -114 -38 -196 -113 -249 -225 -60
-129 -46 -294 35 -416 60 -92 173 -159 296 -178 172 -27 374 86 449 249 21 46
26 73 27 142 1 47 -2 102 -7 122 -7 35 -7 36 35 48 229 69 357 316 280 541
-39 114 -137 223 -235 261 -64 25 -199 32 -264 14z m254 -74 c78 -37 147 -105
181 -179 24 -50 27 -69 27 -162 0 -96 -3 -110 -28 -158 -38 -73 -105 -137
-180 -173 -83 -39 -99 -38 -122 9 -11 20 -21 40 -23 43 -1 3 20 9 49 12 129
16 239 142 239 277 0 195 -215 342 -377 258 -153 -78 -152 -303 1 -378 82 -39
205 -22 242 35 43 65 35 135 -22 184 -28 25 -43 31 -82 31 -73 0 -146 -59
-129 -104 9 -24 23 -19 58 19 38 41 82 47 123 14 36 -28 36 -86 0 -120 -22
-20 -35 -24 -92 -24 -77 0 -107 17 -141 76 -40 69 -18 165 47 214 16 12 47 20
82 23 140 9 259 -126 235 -268 -17 -102 -123 -190 -229 -190 -89 0 -193 76
-237 174 -23 51 -25 155 -3 219 26 77 115 164 192 187 58 18 125 11 189 -19z
m-374 -53 c-31 -34 -59 -96 -72 -160 -14 -66 -4 -143 29 -210 11 -23 20 -42
20 -42 0 -1 -25 1 -56 2 -49 4 -56 7 -66 30 -5 15 -8 66 -6 113 5 103 35 175
104 244 46 45 85 65 47 23z m-18 -469 c49 -13 128 -61 178 -108 44 -42 50 -64
7 -28 -40 34 -131 67 -185 67 -44 0 -55 9 -89 68 -9 15 33 16 89 1z m-128 -38
l23 -39 -30 -7 c-16 -3 -56 -24 -88 -45 -100 -64 -145 -141 -145 -250 0 -151
107 -263 263 -277 204 -19 367 204 276 378 -20 39 -22 50 -10 45 8 -3 26 -6
39 -6 35 0 75 -86 75 -159 0 -112 -93 -245 -208 -299 -45 -21 -75 -27 -147
-30 -116 -5 -182 18 -261 90 -139 127 -164 321 -63 478 41 64 102 114 172 142
64 26 79 23 104 -21z m92 -105 l22 -23 -41 -6 c-83 -11 -158 -89 -174 -180
-16 -90 42 -188 119 -203 44 -8 114 25 138 65 22 37 22 105 1 141 -30 49 -104
77 -104 39 0 -7 16 -27 35 -45 41 -37 46 -77 14 -118 -21 -26 -65 -35 -104
-20 -45 18 -62 144 -25 198 47 73 154 98 221 53 80 -54 100 -137 55 -233 -65
-139 -240 -176 -356 -76 -56 47 -80 98 -80 169 0 109 73 202 195 250 45 17 59
15 84 -11z m150 -10 c18 -10 31 -20 28 -22 -5 -5 -117 42 -117 50 0 7 52 -9
89 -28z"/>
<path d="M4206 3284 c-21 -20 -20 -37 2 -57 24 -22 31 -21 58 4 21 20 22 23 7
45 -18 28 -45 31 -67 8z m54 -24 c0 -19 -25 -34 -41 -24 -23 14 2 57 27 47 8
-3 14 -13 14 -23z"/>
<path d="M4271 3199 c-35 -21 -37 -38 -3 -20 12 6 28 11 36 11 25 0 19 -29 -9
-42 -14 -6 -25 -15 -25 -20 0 -14 18 -9 45 15 23 20 25 24 13 49 -16 33 -14
33 -57 7z"/>
<path d="M4306 3044 c-3 -8 -3 -27 0 -41 6 -22 11 -24 37 -19 16 3 34 6 38 6
10 0 5 42 -6 60 -10 16 -62 12 -69 -6z m59 -19 c0 -23 -34 -33 -46 -14 -10 17
9 41 30 37 9 -2 16 -12 16 -23z"/>
<path d="M4305 2890 c-13 -40 25 -57 45 -20 13 24 32 17 23 -8 -5 -13 -3 -15
7 -5 16 14 6 43 -14 43 -9 0 -20 -9 -26 -20 -6 -11 -15 -18 -21 -15 -5 4 -5
13 1 26 7 12 7 19 1 19 -5 0 -12 -9 -16 -20z"/>
<path d="M4300 2821 c0 -4 11 -13 25 -19 14 -6 25 -18 25 -27 0 -18 -9 -19
-44 -5 -14 5 -26 6 -26 1 0 -12 51 -29 68 -24 6 3 12 14 12 25 0 15 5 18 20
13 11 -3 20 -2 20 2 0 5 -22 16 -50 25 -27 9 -50 13 -50 9z"/>
<path d="M2709 2766 c-143 -15 -182 -34 -187 -88 -2 -27 3 -43 18 -58 20 -20
30 -21 151 -18 71 2 129 0 129 -3 0 -4 -61 -80 -136 -170 -157 -190 -189 -236
-198 -285 -10 -49 18 -103 69 -131 37 -21 53 -23 200 -23 88 0 177 5 197 10
74 21 102 101 54 157 -24 28 -25 28 -135 26 -61 -1 -111 0 -111 3 0 3 29 40
64 83 116 140 216 314 216 378 0 114 -87 145 -331 119z m235 -30 c41 -17 66
-51 66 -89 0 -58 -98 -222 -228 -382 -45 -55 -82 -104 -82 -109 0 -5 52 -7
123 -3 152 7 172 0 172 -58 0 -36 -4 -42 -35 -57 -29 -15 -63 -18 -193 -18
-184 0 -220 10 -244 68 -26 62 -11 87 202 342 124 148 155 189 155 202 0 4
-62 4 -138 1 -163 -7 -192 -2 -192 31 0 44 30 57 162 71 167 17 193 17 232 1z"/>
<path d="M889 2757 c-178 -50 -309 -227 -313 -422 -1 -72 2 -87 32 -147 19
-40 50 -82 75 -104 86 -75 229 -122 333 -110 184 21 295 113 238 194 -27 38
-54 43 -135 21 -110 -28 -193 -25 -260 9 -71 36 -99 78 -99 149 0 96 55 184
142 227 59 30 98 32 158 11 63 -22 97 -19 116 10 58 88 -143 201 -287 162z
m167 -43 c49 -17 109 -76 101 -98 -8 -20 -30 -20 -93 -1 -94 28 -164 14 -231
-48 -154 -141 -137 -343 34 -407 64 -24 155 -26 233 -5 98 26 140 17 140 -31
0 -51 -104 -106 -225 -120 -140 -17 -316 72 -376 189 -65 125 -33 300 76 416
110 117 215 150 341 105z"/>
<path d="M4246 2708 c-21 -30 -21 -31 15 -52 30 -17 30 -17 50 5 22 26 22 25
9 50 -14 26 -55 24 -74 -3z m48 6 c26 -10 20 -44 -8 -44 -27 0 -40 22 -23 39
13 13 11 13 31 5z"/>
<path d="M1743 2688 c-29 -33 -33 -49 -49 -181 -19 -157 -40 -256 -60 -278
-35 -39 -106 -12 -140 53 -9 18 -21 89 -29 175 -15 158 -20 179 -43 206 -20
23 -74 22 -96 -2 -25 -27 -39 -137 -34 -275 4 -139 22 -194 86 -259 58 -61
114 -89 187 -95 56 -4 72 -1 120 23 102 50 141 129 174 356 25 173 26 220 6
258 -24 47 -87 57 -122 19z m89 -25 c24 -22 23 -72 -6 -263 -26 -170 -40 -211
-88 -266 -108 -123 -300 -83 -386 80 -26 50 -27 55 -26 221 0 186 7 215 50
215 34 0 41 -23 59 -201 8 -82 21 -162 29 -177 41 -78 134 -116 186 -74 28 22
54 132 75 306 9 76 21 139 30 153 18 27 51 30 77 6z"/>
<path d="M2051 2695 c-93 -11 -107 -15 -128 -39 -26 -30 -28 -44 -12 -79 14
-31 41 -43 112 -52 l57 -7 0 -192 c0 -105 5 -208 10 -228 13 -46 43 -68 90
-68 85 0 105 84 76 321 -9 74 -19 144 -21 157 -5 21 -3 22 80 22 107 0 141 15
151 66 9 48 -8 82 -51 100 -42 17 -214 17 -364 -1z m363 -36 c30 -23 33 -54 9
-81 -14 -15 -32 -18 -121 -18 l-105 0 7 -47 c4 -27 13 -104 21 -173 27 -225
19 -273 -48 -278 -60 -5 -67 24 -67 276 l0 209 -67 7 c-100 10 -142 49 -96 87
20 18 184 36 329 38 99 1 114 -1 138 -20z"/>
<path d="M4190 2635 c0 -15 31 -77 36 -72 3 3 0 15 -6 27 -15 28 -9 33 24 21
15 -6 26 -7 26 -1 0 8 -8 11 -62 26 -10 3 -18 3 -18 -1z"/>
<path d="M4112 2568 c-19 -19 -14 -33 6 -15 24 22 34 21 49 -2 10 -15 9 -22
-1 -30 -17 -14 -29 -2 -15 16 7 8 8 13 1 13 -18 0 -36 -30 -25 -41 27 -27 77
16 57 49 -14 21 -55 27 -72 10z"/>
</g>
</svg>
